<svg width="16" height="16" viewBox="0 0 16 16" fill="none" xmlns="http://www.w3.org/2000/svg">
<path d="M13.4308 5.68519L11.834 3.29004V1.74994C11.834 1.51993 11.6473 1.33325 11.4173 1.33325H4.75021C4.5202 1.33325 4.33352 1.51993 4.33352 1.74994V3.29004L2.73675 5.68519C2.73175 5.69186 2.73342 5.70186 2.72925 5.70936C2.69342 5.77103 2.66675 5.83937 2.66675 5.91604V14.2499C2.66675 14.4799 2.85343 14.6666 3.08344 14.6666H9.75052H13.0841C13.3141 14.6666 13.5008 14.4799 13.5008 14.2499V5.91604C13.5008 5.83353 13.4766 5.75353 13.4308 5.68519ZM5.1669 2.16664H11.0006V2.99919H5.1669V2.16664ZM9.33383 13.8332H3.50013V6.33273H9.33383V13.8332ZM9.52718 5.49935H3.86182L4.97273 3.83258H10.6381L9.52718 5.49935ZM12.6674 13.8332H10.1672V6.04188L11.4173 4.16676L12.6674 6.04188V13.8332Z" fill="#35363C"/>
</svg>
