<svg width="17" height="16" viewBox="0 0 17 16" fill="none" xmlns="http://www.w3.org/2000/svg">
<path d="M11.996 3.99192C11.5276 3.19494 10.9913 2.55983 10.4019 2.10429C9.74008 1.59275 9.04326 1.33337 8.33081 1.33337C7.61836 1.33337 6.92154 1.59275 6.25974 2.10429C5.67034 2.55983 5.13399 3.19494 4.66568 3.99192C3.76868 5.51835 3.23315 7.48595 3.23315 9.25525C3.23315 10.1408 3.36602 10.943 3.62808 11.6396C3.87985 12.3089 4.25099 12.8832 4.7312 13.3466C5.62623 14.2102 6.87094 14.6667 8.33081 14.6667C9.79068 14.6667 11.0354 14.2102 11.9304 13.3466C12.4106 12.8832 12.7817 12.3089 13.0335 11.6396C13.2956 10.943 13.4285 10.1408 13.4285 9.25525C13.4285 7.48595 12.8929 5.51835 11.996 3.99192ZM8.33081 13.8855C5.628 13.8855 4.0144 12.1545 4.0144 9.25525C4.0144 7.61905 4.50966 5.79939 5.33922 4.38772C6.1881 2.94311 7.27849 2.11462 8.33081 2.11462C9.38313 2.11462 10.4735 2.94311 11.3224 4.38772C12.152 5.79939 12.6472 7.61905 12.6472 9.25525C12.6472 12.1545 11.0336 13.8855 8.33081 13.8855Z" fill="#35363C"/>
</svg>
