<svg width="16" height="16" viewBox="0 0 16 16" fill="none" xmlns="http://www.w3.org/2000/svg">
<path d="M14.9812 1.88965C14.9765 1.58288 14.7326 1.33892 14.4258 1.33426C13.9901 1.32757 12.8328 1.34567 11.4916 1.65377C9.77755 2.04754 8.3964 2.75926 7.38651 3.76913C6.5813 4.57434 5.96112 5.62606 5.54312 6.8951C5.23294 7.83684 5.08567 8.75143 5.01604 9.43588L2.03052 9.64057C2.02906 9.64067 2.02765 9.64096 2.02619 9.64109C2.01822 9.64174 2.01033 9.64281 2.00247 9.64393C1.99721 9.64466 1.99192 9.64528 1.98677 9.64625C1.98036 9.64742 1.97403 9.64901 1.9677 9.65052C1.96124 9.65203 1.95479 9.65343 1.94846 9.65526C1.94377 9.65661 1.93924 9.65833 1.9346 9.65984C1.92703 9.66234 1.91942 9.66479 1.9121 9.66773C1.90854 9.66916 1.90507 9.67091 1.90156 9.67244C1.89356 9.67593 1.88557 9.6794 1.87789 9.68338C1.87414 9.68531 1.87057 9.6876 1.86687 9.68966C1.85976 9.69364 1.85262 9.69755 1.84583 9.70195C1.84067 9.70526 1.8358 9.70898 1.83083 9.71255C1.8258 9.71614 1.82067 9.71955 1.81583 9.72335C1.8095 9.72833 1.80351 9.73377 1.79747 9.73916C1.79427 9.74203 1.79093 9.74468 1.78783 9.74765C1.78161 9.75356 1.7758 9.75994 1.76994 9.7663C1.76726 9.76921 1.76445 9.77197 1.76187 9.77494C1.75677 9.78086 1.75205 9.78713 1.74729 9.79338C1.74424 9.79734 1.74109 9.80119 1.7382 9.80528C1.7345 9.81054 1.73114 9.81606 1.7277 9.82153C1.72414 9.82718 1.72049 9.83276 1.71721 9.83859C1.71471 9.84302 1.71249 9.84765 1.71015 9.85221C1.70643 9.85948 1.70275 9.86677 1.69947 9.87427C1.69893 9.87554 1.6982 9.87671 1.69765 9.87802C1.6964 9.88101 1.69554 9.88403 1.69437 9.88703C1.69127 9.89484 1.6883 9.90268 1.68572 9.9107C1.68411 9.91567 1.68278 9.92065 1.68137 9.92565C1.6794 9.93281 1.67747 9.93997 1.67588 9.94724C1.67453 9.95341 1.67348 9.95958 1.67244 9.96578C1.67143 9.97192 1.67041 9.97804 1.66968 9.98427C1.6688 9.99174 1.66828 9.99919 1.66781 10.0066C1.66749 10.0118 1.66716 10.0169 1.66705 10.022C1.66687 10.0305 1.66713 10.0389 1.66749 10.0473C1.66762 10.0505 1.66744 10.0536 1.66768 10.0569C1.66778 10.0583 1.66807 10.0597 1.66817 10.0611C1.66877 10.0686 1.66976 10.0759 1.67078 10.0833C1.67153 10.0888 1.67221 10.0943 1.6732 10.0997C1.67429 10.1057 1.67567 10.1116 1.67703 10.1174C1.67856 10.1241 1.68007 10.1308 1.68195 10.1374C1.68328 10.142 1.68484 10.1465 1.68632 10.1511C1.68877 10.1585 1.69124 10.166 1.69411 10.1732C1.69567 10.1772 1.69747 10.1811 1.69916 10.185C1.70236 10.1924 1.70565 10.1998 1.70929 10.2069C1.71137 10.211 1.71367 10.215 1.71591 10.219C1.71955 10.2256 1.72322 10.2321 1.72723 10.2384C1.73012 10.243 1.73325 10.2475 1.73635 10.252C1.74007 10.2573 1.74382 10.2627 1.74778 10.2679C1.75164 10.2729 1.75567 10.2777 1.75979 10.2826C1.76346 10.2869 1.76716 10.2912 1.77101 10.2953C1.77567 10.3004 1.78049 10.3052 1.78544 10.31C1.78929 10.3138 1.79317 10.3174 1.79718 10.321C1.80231 10.3256 1.80755 10.33 1.81294 10.3344C1.81744 10.338 1.82203 10.3415 1.82669 10.3449C1.83177 10.3486 1.8369 10.3523 1.84221 10.3558C1.84804 10.3596 1.85403 10.3632 1.86007 10.3668C1.86453 10.3694 1.86895 10.372 1.87354 10.3745C1.88145 10.3787 1.88958 10.3825 1.89778 10.3862C1.90028 10.3873 1.9026 10.3887 1.90512 10.3898L1.91145 10.3925C1.91184 10.3926 1.91223 10.3928 1.91262 10.393L4.73093 11.5855L5.94437 14.4293C5.94497 14.4308 5.94573 14.4321 5.94632 14.4335C5.9482 14.4377 5.95023 14.4418 5.95224 14.446C5.95549 14.4527 5.95888 14.4593 5.96247 14.4658C5.96432 14.4691 5.96617 14.4724 5.96812 14.4757C5.97333 14.4845 5.97882 14.493 5.98461 14.5012C5.9852 14.502 5.98573 14.5029 5.98632 14.5037C5.99341 14.5136 6.00096 14.5231 6.00882 14.5322C6.00935 14.5328 6.00989 14.5333 6.01044 14.5339C6.0176 14.542 6.02507 14.5498 6.03278 14.5572C6.03448 14.5589 6.03619 14.5604 6.03791 14.562C6.04513 14.5687 6.05255 14.5751 6.06015 14.5812C6.06179 14.5825 6.06336 14.5839 6.065 14.5851C6.07393 14.592 6.0831 14.5985 6.09255 14.6046C6.09523 14.6063 6.09804 14.6078 6.10078 14.6095C6.10752 14.6136 6.11435 14.6175 6.1213 14.6212C6.12536 14.6234 6.12948 14.6254 6.13364 14.6274C6.14015 14.6306 6.14677 14.6335 6.15341 14.6362C6.15724 14.6378 6.16096 14.6396 6.16487 14.641C6.17487 14.6448 6.18502 14.6482 6.19531 14.6511C6.1988 14.6521 6.20234 14.653 6.20586 14.6539C6.21434 14.6561 6.22291 14.658 6.23151 14.6596C6.2345 14.6602 6.23744 14.6608 6.24047 14.6612C6.26122 14.6647 6.28231 14.6666 6.30359 14.6666C6.31989 14.6666 6.33627 14.6652 6.35265 14.6631C6.36177 14.6619 6.37088 14.6608 6.37976 14.659C6.38208 14.6585 6.38435 14.6578 6.38666 14.6573C6.39705 14.655 6.40734 14.6525 6.41739 14.6494C6.42002 14.6486 6.4226 14.6476 6.4252 14.6467C6.43484 14.6435 6.44435 14.6402 6.45367 14.6362C6.45463 14.6359 6.45562 14.6356 6.45661 14.6352C6.45942 14.634 6.462 14.6325 6.46476 14.6312C6.47244 14.6277 6.48007 14.6241 6.48747 14.6201C6.49234 14.6175 6.497 14.6147 6.50172 14.612C6.50747 14.6085 6.51317 14.6051 6.51872 14.6014C6.52419 14.5978 6.5295 14.594 6.53476 14.5902C6.53922 14.5869 6.54359 14.5835 6.54791 14.58C6.55346 14.5756 6.55888 14.571 6.56414 14.5663C6.56794 14.5629 6.57164 14.5593 6.57531 14.5558C6.58041 14.5508 6.58541 14.5458 6.59023 14.5406C6.59393 14.5366 6.59747 14.5324 6.60099 14.5283C6.60523 14.5233 6.60942 14.5183 6.61338 14.513C6.61726 14.508 6.62086 14.5028 6.6245 14.4975C6.62768 14.4929 6.63091 14.4883 6.6339 14.4836C6.63784 14.4773 6.64145 14.4709 6.64505 14.4643C6.64731 14.4602 6.64966 14.4562 6.65177 14.452C6.65539 14.4449 6.65862 14.4375 6.66182 14.4301C6.66351 14.4262 6.66531 14.4223 6.66687 14.4183C6.66971 14.4111 6.67216 14.4036 6.67458 14.3962C6.67606 14.3916 6.67763 14.3871 6.67896 14.3825C6.6808 14.376 6.68226 14.3694 6.68377 14.3627C6.68513 14.3568 6.68656 14.3509 6.68763 14.3449C6.68856 14.3396 6.68922 14.3342 6.68994 14.3288C6.69099 14.3213 6.692 14.3139 6.6926 14.3063C6.69271 14.3051 6.69294 14.3039 6.69304 14.3026L6.89911 11.2972C7.58231 11.2267 8.49424 11.0785 9.43252 10.7681C10.6962 10.3502 11.7439 9.73135 12.5466 8.92867C13.5565 7.91877 14.2682 6.5376 14.662 4.82359C14.9698 3.48262 14.9878 2.32507 14.9812 1.88965ZM11.9943 8.3769C10.3439 10.0272 7.8432 10.4466 6.49942 10.5497C6.2888 10.5658 6.13052 10.7464 6.13971 10.9558L6.025 12.6291L5.38713 11.1342C5.38536 11.13 5.38317 11.1262 5.38127 11.1222C5.3782 11.1156 5.37515 11.109 5.37171 11.1026C5.36877 11.0971 5.36554 11.0919 5.36237 11.0866C5.35901 11.081 5.35567 11.0754 5.35203 11.07C5.34841 11.0646 5.34453 11.0594 5.34067 11.0542C5.33695 11.0492 5.33323 11.0442 5.32924 11.0393C5.32513 11.0343 5.3208 11.0296 5.31648 11.0248C5.31224 11.0202 5.30796 11.0155 5.30349 11.011C5.29903 11.0066 5.29442 11.0024 5.28979 10.9982C5.28494 10.9939 5.28013 10.9895 5.27502 10.9853C5.27026 10.9815 5.26533 10.9778 5.26039 10.9742C5.2551 10.9702 5.24981 10.9663 5.24429 10.9626C5.23898 10.9591 5.23351 10.9559 5.22804 10.9526C5.22257 10.9494 5.21718 10.9461 5.21151 10.943C5.20536 10.9398 5.19903 10.9369 5.19273 10.934C5.18846 10.9319 5.1844 10.9297 5.18002 10.9278L3.71455 10.3076L5.4019 10.1919C5.40588 10.1916 5.40971 10.1909 5.41367 10.1905C5.42007 10.1899 5.42643 10.1892 5.43273 10.1882C5.43971 10.1872 5.44658 10.1859 5.45341 10.1845C5.45893 10.1834 5.46442 10.1822 5.46987 10.1809C5.47744 10.179 5.48489 10.1768 5.49226 10.1745C5.49666 10.1731 5.50104 10.1717 5.50539 10.1702C5.51349 10.1673 5.52143 10.1642 5.52924 10.1608C5.53273 10.1593 5.53617 10.1578 5.53961 10.1562C5.54789 10.1523 5.55596 10.1482 5.56385 10.1438C5.56674 10.1422 5.56963 10.1406 5.5725 10.1389C5.58049 10.1342 5.5883 10.1293 5.59588 10.124C5.59859 10.1222 5.6013 10.1203 5.60395 10.1183C5.6113 10.113 5.61843 10.1074 5.62533 10.1016C5.62815 10.0993 5.63088 10.0969 5.63362 10.0945C5.64005 10.0888 5.64627 10.0829 5.65231 10.0768C5.65528 10.0738 5.65817 10.0708 5.66104 10.0677C5.66648 10.0619 5.67174 10.0559 5.67682 10.0497C5.67987 10.046 5.68283 10.0422 5.68575 10.0384C5.69028 10.0324 5.69463 10.0263 5.69882 10.0201C5.70174 10.0158 5.70458 10.0114 5.70731 10.0069C5.71112 10.0008 5.71476 9.9945 5.71823 9.98809C5.72078 9.98338 5.72325 9.97864 5.7256 9.97382C5.72885 9.96721 5.73187 9.96052 5.73474 9.95369C5.73677 9.9489 5.73869 9.94408 5.74054 9.93919C5.74328 9.93192 5.74573 9.92458 5.74802 9.91716C5.74945 9.9125 5.75083 9.90786 5.75208 9.90312C5.75422 9.89515 5.75604 9.88708 5.75765 9.87895C5.75856 9.87442 5.75942 9.86992 5.76018 9.86533C5.76153 9.85698 5.76255 9.84854 5.76338 9.84007C5.76367 9.83724 5.76424 9.8345 5.76445 9.83164C5.86609 8.48388 6.28369 5.97572 7.93841 4.32098C8.56278 3.69661 9.3538 3.19768 10.2998 2.82991C10.5571 3.56192 10.977 4.23148 11.5303 4.78479C12.0836 5.33809 12.7531 5.75802 13.4852 6.01531C13.1176 6.9615 12.6186 7.75252 11.9943 8.3769ZM13.9008 4.64903C13.8514 4.86416 13.7965 5.07317 13.7365 5.2764C13.1175 5.05755 12.5511 4.70153 12.0826 4.23296C11.614 3.76439 11.258 3.19799 11.0391 2.579C11.2423 2.51906 11.4513 2.46416 11.6665 2.41471C12.7459 2.16674 13.696 2.11908 14.2011 2.11442C14.1964 2.61958 14.1487 3.56968 13.9008 4.64903Z" fill="#35363C"/>
<path d="M13.2407 3.08254C13.2316 3.07343 13.222 3.06483 13.2121 3.05679C13.2022 3.04871 13.1918 3.04116 13.1814 3.03389C13.1707 3.02686 13.1598 3.02035 13.1483 3.01436C13.1371 3.0084 13.1257 3.00293 13.114 2.99822C13.1022 2.9933 13.09 2.98887 13.078 2.9852C13.0658 2.98155 13.0533 2.97843 13.0408 2.97585C13.0283 2.97322 13.0156 2.97142 13.0028 2.97009C12.9776 2.96749 12.9515 2.96749 12.9261 2.97009C12.9136 2.97142 12.9008 2.97322 12.8883 2.97585C12.8758 2.97845 12.8634 2.98158 12.8511 2.9852C12.8391 2.98887 12.8269 2.9933 12.8152 2.99822C12.8035 3.00293 12.7918 3.0084 12.7806 3.01436C12.7694 3.02035 12.7585 3.02686 12.7478 3.03389C12.7371 3.04119 12.727 3.04874 12.7171 3.05679C12.7072 3.06488 12.6976 3.07348 12.6885 3.08254C12.6796 3.09166 12.6707 3.10103 12.6627 3.1109C12.6546 3.1208 12.6471 3.13119 12.6401 3.14186C12.633 3.15225 12.6263 3.16345 12.6203 3.17465C12.6146 3.18585 12.6091 3.19754 12.6042 3.20926C12.5992 3.22098 12.595 3.23293 12.5911 3.24517C12.5875 3.25741 12.5844 3.26989 12.5818 3.28239C12.5794 3.29489 12.5773 3.30736 12.576 3.32012C12.5747 3.33288 12.5742 3.34588 12.5742 3.35864C12.5742 3.46114 12.6159 3.56189 12.6885 3.6345C12.6976 3.64361 12.7072 3.65218 12.7171 3.66025C12.727 3.66832 12.7371 3.67588 12.7478 3.68314C12.7585 3.69017 12.7694 3.69668 12.7806 3.70267C12.7918 3.70866 12.8035 3.71413 12.8152 3.71908C12.8269 3.72377 12.8391 3.72822 12.8511 3.73184C12.8634 3.73549 12.8758 3.73887 12.8883 3.74121C12.9008 3.74382 12.9136 3.74564 12.9261 3.74694C12.9388 3.74825 12.9518 3.74903 12.9646 3.74903C12.9773 3.74903 12.9903 3.74825 13.0028 3.74694C13.0156 3.74564 13.0283 3.74382 13.0408 3.74121C13.0533 3.73885 13.0658 3.73546 13.078 3.73184C13.09 3.72819 13.1022 3.72374 13.114 3.71908C13.1257 3.71416 13.1371 3.70869 13.1483 3.70267C13.1597 3.69668 13.1707 3.69017 13.1814 3.68314C13.1918 3.67585 13.2022 3.6683 13.2121 3.66025C13.222 3.65215 13.2316 3.64358 13.2407 3.6345C13.3133 3.56189 13.3549 3.46116 13.3549 3.35864C13.3549 3.25585 13.3133 3.15515 13.2407 3.08254Z" fill="#35363C"/>
</svg>
