<svg width="24" height="24" viewBox="0 0 24 24" fill="none" xmlns="http://www.w3.org/2000/svg">
<path d="M12 1.49996C9.14839 1.49996 8.79081 1.51205 7.67088 1.56315C6.55327 1.61412 5.78999 1.79164 5.1221 2.05118C4.43163 2.31951 3.84607 2.67854 3.26233 3.26227C2.67859 3.846 2.31956 4.4316 2.05123 5.12207C1.79168 5.78995 1.61418 6.55323 1.56317 7.67084C1.51208 8.79077 1.5 9.14835 1.5 12C1.5 14.8516 1.51208 15.2092 1.56317 16.3291C1.61418 17.4467 1.79168 18.21 2.05123 18.8779C2.31956 19.5684 2.67859 20.1539 3.26233 20.7377C3.84607 21.3214 4.43163 21.6805 5.1221 21.9488C5.78999 22.2083 6.55327 22.3858 7.67088 22.4368C8.79081 22.4879 9.14839 22.5 12 22.5C14.8517 22.5 15.2092 22.4879 16.3292 22.4368C17.4468 22.3858 18.2101 22.2083 18.8779 21.9488C19.5684 21.6805 20.154 21.3214 20.7377 20.7377C21.3215 20.1539 21.6805 19.5684 21.9488 18.8779C22.2084 18.21 22.3859 17.4467 22.4369 16.3291C22.488 15.2092 22.5 14.8516 22.5 12C22.5 9.14835 22.488 8.79077 22.4369 7.67084C22.3859 6.55323 22.2084 5.78995 21.9488 5.12207C21.6805 4.4316 21.3215 3.846 20.7377 3.26227C20.154 2.67854 19.5684 2.31951 18.8779 2.05118C18.2101 1.79164 17.4468 1.61412 16.3292 1.56315C15.2092 1.51205 14.8517 1.49996 12 1.49996ZM12 3.39185C14.8036 3.39185 15.1357 3.40257 16.2429 3.45308C17.2667 3.49976 17.8226 3.67082 18.1926 3.81461C18.6827 4.00509 19.0325 4.23262 19.3999 4.60003C19.7674 4.96748 19.9949 5.31726 20.1854 5.80737C20.3292 6.17736 20.5002 6.73333 20.5469 7.75707C20.5974 8.86426 20.6081 9.19636 20.6081 12C20.6081 14.8036 20.5974 15.1357 20.5469 16.2429C20.5002 17.2666 20.3292 17.8226 20.1854 18.1926C19.9949 18.6827 19.7674 19.0325 19.3999 19.3999C19.0325 19.7673 18.6827 19.9949 18.1926 20.1853C17.8226 20.3291 17.2667 20.5002 16.2429 20.5469C15.1359 20.5974 14.8038 20.6081 12 20.6081C9.19619 20.6081 8.86417 20.5974 7.75711 20.5469C6.73337 20.5002 6.1774 20.3291 5.80741 20.1853C5.31729 19.9949 4.96752 19.7673 4.6001 19.3999C4.23269 19.0325 4.00512 18.6827 3.81465 18.1926C3.67086 17.8226 3.49982 17.2666 3.45311 16.2429C3.40259 15.1357 3.39189 14.8036 3.39189 12C3.39189 9.19636 3.40259 8.86426 3.45311 7.75707C3.49982 6.73333 3.67086 6.17736 3.81465 5.80737C4.00512 5.31726 4.23267 4.96748 4.60009 4.60007C4.96752 4.23262 5.31729 4.00509 5.80741 3.81461C6.1774 3.67082 6.73337 3.49976 7.75711 3.45308C8.8643 3.40257 9.1964 3.39185 12 3.39185Z" fill="#4A0D66"/>
<path d="M11.9993 15.5C10.0663 15.5 8.49931 13.933 8.49931 12C8.49931 10.0669 10.0663 8.49994 11.9993 8.49994C13.9323 8.49994 15.4993 10.0669 15.4993 12C15.4993 13.933 13.9323 15.5 11.9993 15.5ZM11.9993 6.60805C9.02144 6.60805 6.60742 9.02207 6.60742 12C6.60742 14.9778 9.02144 17.3918 11.9993 17.3918C14.9772 17.3918 17.3912 14.9778 17.3912 12C17.3912 9.02207 14.9772 6.60805 11.9993 6.60805Z" fill="#4A0D66"/>
<path d="M18.8657 6.39504C18.8657 7.09093 18.3016 7.65503 17.6057 7.65503C16.9098 7.65503 16.3457 7.09093 16.3457 6.39504C16.3457 5.69915 16.9098 5.13501 17.6057 5.13501C18.3016 5.13501 18.8657 5.69915 18.8657 6.39504Z" fill="#4A0D66"/>
</svg>
