<svg width="17" height="16" viewBox="0 0 17 16" fill="none" xmlns="http://www.w3.org/2000/svg">
<path d="M15.3155 4.30635C15.232 3.05202 14.8886 2.07121 14.8741 2.03009L14.8118 1.85455L14.6363 1.79236C14.5952 1.77778 13.6145 1.43451 12.3603 1.35115C10.6553 1.2379 9.26392 1.66747 8.33703 2.59375C7.79934 3.13114 7.38468 3.7824 7.13797 4.47712C6.84464 5.30307 6.17643 5.97129 5.35048 6.26459C4.65628 6.51112 4.00507 6.92572 3.46724 7.46357C2.60632 8.32447 2.08896 9.42929 2.01042 10.5745C1.9305 11.7399 2.31234 12.8075 3.08561 13.5808C3.7915 14.2867 4.74273 14.6664 5.78972 14.6664C5.88958 14.6664 5.99042 14.663 6.0919 14.656C7.23713 14.5775 8.34193 14.0601 9.20285 13.1992C9.74073 12.6613 10.1553 12.0101 10.4018 11.3159H10.4018C10.6951 10.49 11.3634 9.82181 12.1893 9.52848C12.8835 9.28197 13.5347 8.86737 14.0726 8.32949C14.9992 7.40287 15.429 6.0117 15.3155 4.30635ZM5.66334 11.0031C5.97143 11.3112 6.27309 11.5799 6.56074 11.8136C5.71175 12.5116 4.70268 12.911 3.73861 12.9275C3.75531 11.9635 4.15478 10.9544 4.8527 10.1055C5.08637 10.3931 5.35512 10.6949 5.66334 11.0031ZM6.21575 10.4507C5.89958 10.1345 5.62824 9.82535 5.39644 9.53356C5.86649 9.10515 6.40444 8.76435 6.96547 8.54147C7.39401 8.37121 7.79462 8.1277 8.15008 7.82911L8.83734 8.51636C8.53875 8.87183 8.29524 9.27244 8.12498 9.70097C7.90207 10.2621 7.56127 10.8 7.13287 11.27C6.84102 11.0382 6.53186 10.7668 6.21575 10.4507ZM8.70278 7.27696C9.00275 6.92059 9.24735 6.51872 9.41816 6.08873C9.6406 5.5288 9.98049 4.99183 10.4077 4.52244C10.6995 4.7542 11.0086 5.02555 11.3248 5.34166C11.6408 5.65775 11.9122 5.96686 12.144 6.25868C11.6746 6.68591 11.1376 7.02577 10.5777 7.24824C10.1477 7.41907 9.74581 7.66365 9.38943 7.96361L8.70278 7.27696ZM11.8772 4.78928C11.5684 4.48051 11.2661 4.21132 10.9779 3.97734C11.9359 3.17283 13.1639 2.61354 14.1169 2.54959C14.053 3.50272 13.4936 4.73061 12.6891 5.68848C12.4551 5.40031 12.1859 5.098 11.8772 4.78928ZM12.5212 2.1503C11.7585 2.45472 10.9889 2.92244 10.3394 3.49647C9.90924 3.19731 9.53381 2.98489 9.24717 2.84044C10.0047 2.28605 10.9522 2.11671 11.8261 2.11671C12.0652 2.11668 12.2986 2.12944 12.5212 2.1503ZM8.63981 3.41751C8.87687 3.52389 9.27936 3.72592 9.77461 4.05877C9.3105 4.5827 8.93923 5.17833 8.6921 5.80033C8.56026 6.13217 8.37498 6.44367 8.14873 6.72294L7.25763 5.83184C7.52189 5.50653 7.73259 5.13714 7.87413 4.73855C8.04248 4.26458 8.30446 3.81375 8.63981 3.41751ZM5.61193 7.00077C6.01052 6.85924 6.37994 6.64854 6.70524 6.38425L7.59598 7.27496C7.31765 7.49987 7.00745 7.68414 6.67704 7.81541C6.05396 8.06294 5.4573 8.43506 4.9327 8.90034C4.6 8.4053 4.39803 8.00296 4.29162 7.76591C4.68799 7.43068 5.13853 7.16889 5.61193 7.00077ZM2.78983 10.628C2.84545 9.81652 3.1681 9.02622 3.70843 8.36111C3.85309 8.64943 4.06746 9.02971 4.37115 9.46624C3.67664 10.2618 3.21399 11.1995 3.03748 12.1448C2.83884 11.6881 2.75249 11.1723 2.78983 10.628ZM5.79466 13.8844C5.35059 13.8844 4.9182 13.7996 4.52339 13.6287C5.46819 13.4519 6.40541 12.9896 7.20044 12.2955C7.63637 12.5989 8.01628 12.8132 8.30459 12.9581C7.54851 13.5708 6.65009 13.8844 5.79466 13.8844ZM9.66563 11.0545C9.49748 11.528 9.23558 11.9787 8.90015 12.3752C8.6626 12.2684 8.26045 12.0662 7.766 11.7338C8.23128 11.2093 8.60346 10.6126 8.85103 9.98941C8.98231 9.659 9.16655 9.34879 9.39146 9.07047L10.2822 9.96118C10.0179 10.2865 9.80719 10.6559 9.66563 11.0545ZM11.9279 8.79227C11.5293 8.9338 11.1599 9.1445 10.8346 9.40877L9.94348 8.51769C10.2227 8.29145 10.5343 8.10614 10.8661 7.97432C11.4881 7.72719 12.0838 7.35592 12.6077 6.89176C12.9404 7.38654 13.1427 7.78885 13.2493 8.02617C12.8527 8.36186 12.4017 8.62399 11.9279 8.79227ZM13.8263 7.41907C13.6817 7.13233 13.4691 6.75692 13.17 6.32701C13.7442 5.67736 14.212 4.90748 14.5164 4.14453C14.6137 5.18117 14.5325 6.45443 13.8263 7.41907Z" fill="#35363C"/>
</svg>
