<svg width="16" height="16" viewBox="0 0 16 16" fill="none" xmlns="http://www.w3.org/2000/svg">
<path fill-rule="evenodd" clip-rule="evenodd" d="M1.40798 0.0618802C1.06567 0.15152 0.823309 0.293326 0.556241 0.560214C0.285359 0.830948 0.14654 1.07074 0.056162 1.4238C-0.0566693 1.86478 0.00190415 2.34427 0.219311 2.75896C0.352219 3.0125 0.731618 3.39169 0.985301 3.52453C1.32817 3.70406 1.58295 3.74932 2.25103 3.74932H2.8402V3.82636C2.8402 3.89953 2.93464 4.41765 2.98143 4.60102L3.00335 4.68697H2.15436C1.36517 4.68697 1.29665 4.69141 1.18194 4.74989C1.04319 4.82065 0.932575 5.00071 0.932575 5.1558C0.932575 5.31089 1.04319 5.49095 1.18194 5.56172C1.29834 5.62104 1.36473 5.62463 2.34922 5.62463H3.39307L3.43185 5.71058C3.50768 5.87874 3.86929 6.39436 4.08882 6.64737C4.76006 7.42103 5.76384 8.03538 6.74927 8.27571C7.28616 8.40663 7.40077 8.41526 8.86017 8.43439L10.2987 8.45323L10.5333 8.56538C10.8359 8.71006 11.039 8.91331 11.1864 9.21899C11.2954 9.44512 11.2994 9.46553 11.2986 9.79721C11.2979 10.0956 11.2879 10.1617 11.2224 10.2973C11.0366 10.682 10.5535 11.0345 8.7099 12.13C8.07016 12.5101 7.51567 12.8404 7.47773 12.8639C7.41231 12.9045 7.40546 12.8993 7.34483 12.7623C7.30968 12.6829 7.2809 12.6116 7.2809 12.6039C7.2809 12.5962 7.21923 12.496 7.1439 12.3812C6.89603 12.0038 6.47767 11.6539 6.08679 11.4972C5.7205 11.3503 5.63056 11.3371 4.8858 11.3217C4.1964 11.3073 4.15793 11.3096 4.03406 11.3728C3.78817 11.4982 3.72703 11.7549 3.82744 12.2407C3.9252 12.7138 4.10402 13.0447 4.46196 13.415L4.69613 13.6572L4.46196 13.8995C4.10402 14.2698 3.9252 14.6007 3.82744 15.0737C3.72703 15.5595 3.78817 15.8163 4.03406 15.9417C4.15796 16.0049 4.1963 16.0071 4.8858 15.9927C5.41987 15.9816 5.65351 15.9645 5.78332 15.9272C6.54225 15.7088 7.16344 15.1244 7.39505 14.4109L7.48418 14.1364L8.42235 14.1164C9.75757 14.088 10.5474 14.0187 11.3898 13.8561C14.0515 13.3424 15.5725 11.8924 15.9262 9.53154C16.0401 8.77138 16.0214 7.92543 15.8757 7.25063C15.6853 6.36788 15.2501 5.49111 14.653 4.78709C13.9411 3.94769 12.9287 3.30293 11.8754 3.01813C11.1437 2.82028 11.4972 2.83335 6.34273 2.81384L1.63621 2.79603L1.45852 2.70883C1.12356 2.54442 0.949932 2.26 0.948868 1.874C0.948337 1.6799 0.963223 1.60905 1.03546 1.46199C1.13431 1.2608 1.28583 1.114 1.49389 1.01779C1.63543 0.952312 1.65625 0.951874 5.35764 0.93634C8.84212 0.921713 9.08552 0.917181 9.1804 0.86536C9.29689 0.801755 9.40744 0.608004 9.40744 0.467511C9.40744 0.312423 9.29683 0.132361 9.15807 0.0615989C9.03639 -0.000442796 8.98294 -0.00128669 5.33544 0.000401097C1.79645 0.00205763 1.62633 0.00471433 1.40798 0.0618802ZM8.95098 3.81104C9.30424 3.90137 9.54416 4.04011 9.81504 4.31085C10.0859 4.58158 10.2247 4.82137 10.3151 5.17443C10.3935 5.48086 10.3935 5.76841 10.3151 6.07483C10.2247 6.42789 10.0859 6.66768 9.81504 6.93842C9.38983 7.36336 9.00975 7.49995 8.25235 7.49995C7.51598 7.49995 6.99557 7.41281 6.4539 7.19884C5.10358 6.66537 4.11446 5.4933 3.82751 4.08662C3.80049 3.95413 3.77838 3.82402 3.77838 3.79751C3.77838 3.7545 4.04323 3.74932 6.24391 3.74932C8.59685 3.74932 8.72047 3.75213 8.95098 3.81104ZM11.2994 3.84796C11.9337 3.97192 12.6431 4.28291 13.1445 4.65688C13.4755 4.90373 13.9007 5.32743 14.147 5.65589C14.3463 5.92175 14.6514 6.46915 14.7398 6.71985C14.786 6.85065 14.7851 6.85634 14.689 7.02806C14.4304 7.48992 13.9978 7.89289 13.4954 8.14009C13.0593 8.35462 12.793 8.41517 12.2689 8.41889L11.8311 8.42198L11.5752 8.16681C11.3644 7.95659 11.2634 7.88364 11.0017 7.75268C10.8269 7.66526 10.6571 7.59372 10.6242 7.59372C10.5419 7.59372 10.5494 7.55096 10.6529 7.43072C10.9015 7.14211 11.1172 6.72676 11.2257 6.32788C11.3228 5.97135 11.3232 5.28067 11.2266 4.92139C11.1461 4.62231 10.9279 4.17157 10.7534 3.94404C10.6839 3.85343 10.6271 3.77244 10.6271 3.76404C10.6271 3.73994 10.9579 3.78123 11.2994 3.84796ZM6.83561 4.75142C6.70358 4.82109 6.59291 5.0055 6.59291 5.1558C6.59291 5.31089 6.70352 5.49095 6.84228 5.56172C6.91014 5.59632 7.00902 5.62463 7.062 5.62463C7.29995 5.62463 7.53109 5.39362 7.53109 5.1558C7.53109 5.00071 7.42047 4.82065 7.28172 4.74989C7.12764 4.67135 6.9865 4.67182 6.83561 4.75142ZM15.0587 8.64858C15.0116 9.96987 14.6776 10.8826 13.9768 11.6055C13.7412 11.8486 13.3902 12.1257 13.3182 12.1257C13.2334 12.1257 12.7976 11.9209 12.579 11.7783C12.3515 11.6298 11.949 11.2586 11.8849 11.1381C11.8598 11.091 11.8772 11.0392 11.9688 10.888C12.1771 10.5443 12.2732 10.1129 12.2438 9.65306L12.2266 9.38389L12.5109 9.36245C13.4019 9.29522 14.2051 8.94376 14.8176 8.35312C14.9466 8.22873 15.0578 8.12652 15.0647 8.12599C15.0716 8.12549 15.0689 8.36066 15.0587 8.64858ZM11.8774 12.4304C12.0116 12.5293 12.147 12.6254 12.1781 12.6439C12.3013 12.7174 11.1237 12.9827 10.2518 13.0778C9.86783 13.1197 8.84632 13.1868 8.82083 13.1718C8.81639 13.1692 9.18931 12.9408 9.64955 12.6642C10.1098 12.3876 10.6341 12.0635 10.8147 11.9441L11.1431 11.7271L11.3881 11.9888C11.523 12.1328 11.7431 12.3315 11.8774 12.4304ZM5.51913 12.2945C5.75061 12.356 5.95554 12.4654 6.1256 12.6179C6.27471 12.7517 6.44321 12.988 6.4822 13.1181C6.50297 13.1873 6.499 13.1884 6.22755 13.188C5.78802 13.1874 5.46585 13.0742 5.18386 12.8212C5.03475 12.6875 4.86626 12.4511 4.82726 12.3211C4.80649 12.2518 4.81047 12.2508 5.08191 12.2511C5.23355 12.2513 5.43032 12.2708 5.51913 12.2945ZM6.49909 14.1451C6.49909 14.2222 6.27168 14.5624 6.1398 14.6825C5.84778 14.9485 5.53042 15.0628 5.08191 15.0634C4.81047 15.0637 4.80649 15.0626 4.82726 14.9934C4.86626 14.8633 5.03475 14.627 5.18386 14.4933C5.34848 14.3455 5.56711 14.2265 5.77982 14.1686C5.92371 14.1294 6.49909 14.1107 6.49909 14.1451Z" fill="#35363C"/>
</svg>
