<svg width="16" height="16" viewBox="0 0 16 16" fill="none" xmlns="http://www.w3.org/2000/svg">
<g clip-path="url(#clip0_702:2785)">
<path d="M8.98137 8.977C8.4148 8.62029 7.66365 8.79102 7.30693 9.35759C6.95022 9.92416 7.12095 10.6753 7.68752 11.032C8.25409 11.3887 9.00525 11.218 9.36196 10.6514C9.71867 10.0849 9.54794 9.33371 8.98137 8.977ZM8.11881 10.347C7.92995 10.2281 7.87304 9.97773 7.99194 9.78887C8.11085 9.60002 8.36123 9.54311 8.55009 9.66201C8.73895 9.78091 8.79586 10.0313 8.67695 10.2202C8.55805 10.409 8.30766 10.4659 8.11881 10.347Z" fill="#35363C"/>
<path d="M12.1779 10.9895C11.6113 10.6327 10.8602 10.8035 10.5035 11.37C10.1468 11.9366 10.3175 12.6878 10.8841 13.0445C11.4506 13.4012 12.2018 13.2305 12.5585 12.6639C12.9152 12.0973 12.7445 11.3462 12.1779 10.9895ZM11.3153 12.3595C11.1265 12.2406 11.0696 11.9902 11.1885 11.8013C11.3074 11.6125 11.5578 11.5556 11.7466 11.6745C11.9355 11.7934 11.9924 12.0438 11.8735 12.2326C11.7546 12.4215 11.5042 12.4784 11.3153 12.3595Z" fill="#35363C"/>
<path d="M13.8226 10.3917C13.8469 9.91501 13.7507 9.46683 13.5348 9.05742C13.1983 8.41948 12.6648 7.90899 12.0377 7.61422C12.1712 6.97269 12.08 6.29882 11.7727 5.71603C11.4653 5.13322 10.9607 4.67739 10.3559 4.42528C10.4669 3.74125 10.347 3.01267 10.0106 2.3747C9.00498 0.467864 6.29485 0.891276 6.17998 0.910242C6.09359 0.924498 6.01412 0.966391 5.95357 1.02966C5.87303 1.11376 3.99294 3.11108 4.99851 5.01786C5.03217 5.08168 5.06778 5.14393 5.10502 5.20486C3.79395 5.27519 2.66203 6.18789 2.59703 6.24125C2.52932 6.29679 2.48146 6.37281 2.46066 6.45785C2.43295 6.57094 1.8034 9.24072 3.62765 10.3893C4.23797 10.7735 4.95527 10.9488 5.64579 10.8905C5.85089 11.5129 6.26678 12.0509 6.82436 12.4019C7.38191 12.7529 8.04685 12.8954 8.69671 12.8114C8.94261 13.4593 9.41072 14.0303 10.0211 14.4146C11.8453 15.5631 13.9806 13.8414 14.0707 13.7675C14.1383 13.712 14.1862 13.6359 14.207 13.5509C14.2296 13.4588 14.6508 11.6724 13.8226 10.3917ZM6.44776 1.69246C6.94613 1.64256 8.66763 1.56354 9.29453 2.75227C9.59632 3.32454 9.6686 3.98877 9.49287 4.57463C9.46131 4.67981 9.47386 4.79331 9.52762 4.88908C9.5814 4.98486 9.67175 5.05466 9.778 5.08246C10.3357 5.22853 10.7898 5.58764 11.0566 6.09362C11.3235 6.59962 11.3634 7.17718 11.1689 7.7199C11.1319 7.8233 11.1384 7.93729 11.1871 8.03576C11.2357 8.13421 11.3223 8.20865 11.4269 8.24203C12.0097 8.42789 12.517 8.86274 12.8188 9.435C12.8324 9.46086 12.8451 9.48692 12.8573 9.5131C12.289 9.20369 11.6447 9.06561 11.0219 9.1182C10.8168 8.4959 10.4009 7.95788 9.84333 7.60685C9.28578 7.25581 8.62087 7.11334 7.971 7.19738C7.72507 6.54951 7.25694 5.97846 6.64662 5.5942C6.56531 5.54301 6.48338 5.49776 6.40105 5.4576C6.11573 5.23804 5.8849 4.96339 5.71451 4.64028C5.08742 3.45115 6.12569 2.07477 6.44776 1.69246ZM10.4523 13.7296C9.90484 13.3848 9.51015 12.8458 9.36943 12.2505C9.34495 12.1471 9.28089 12.0576 9.19118 12.0011C9.18819 11.9992 9.18516 11.9973 9.18209 11.9955C9.08766 11.9395 8.9745 11.9242 8.86858 11.9532C8.31253 12.1056 7.73971 12.0217 7.25564 11.7169C6.77157 11.4121 6.44826 10.9319 6.34531 10.3646C6.32568 10.2566 6.26299 10.1611 6.17164 10.1002C6.08069 10.0389 5.96809 10.018 5.86079 10.0415C5.26316 10.1719 4.60641 10.0489 4.05893 9.70425C2.92131 8.98801 3.1323 7.27688 3.22005 6.78477C3.62668 6.49236 5.07804 5.56316 6.21534 6.27921C6.76284 6.62392 7.15756 7.16299 7.2983 7.75825C7.32354 7.86512 7.39121 7.95682 7.48563 8.01318C7.58005 8.06921 7.69322 8.0845 7.79912 8.05546C8.35513 7.90312 8.92795 7.98707 9.41205 8.29186C9.89612 8.59663 10.2194 9.07688 10.3224 9.64417C10.342 9.7522 10.4047 9.84766 10.4961 9.90858C10.5878 9.96984 10.6997 9.99072 10.8069 9.96732C11.4045 9.83689 12.0613 9.9598 12.6088 10.3045C13.7464 11.0208 13.5354 12.7319 13.4476 13.224C13.041 13.5164 11.5896 14.4456 10.4523 13.7296Z" fill="#35363C"/>
<path d="M5.78301 6.96357C5.21644 6.60686 4.46528 6.77759 4.10857 7.34416C3.75186 7.91074 3.92259 8.66189 4.48916 9.0186C5.05573 9.37532 5.80688 9.20458 6.1636 8.63801C6.52031 8.07144 6.34958 7.32029 5.78301 6.96357ZM4.92044 8.33359C4.73159 8.21469 4.67467 7.9643 4.79358 7.77545C4.91248 7.58659 5.16287 7.52968 5.35172 7.64858C5.54058 7.76749 5.59749 8.01787 5.47859 8.20673C5.35968 8.39559 5.1093 8.4525 4.92044 8.33359Z" fill="#35363C"/>
</g>
<defs>
<clipPath id="clip0_702:2785">
<rect width="16" height="16" fill="white"/>
</clipPath>
</defs>
</svg>
