<svg id="Layer_1" data-name="Layer 1" xmlns="http://www.w3.org/2000/svg" viewBox="0 0 32 32"><defs><style>.cls-1{fill:#4a0d66;}</style></defs><title>Untitled-1</title><path class="cls-1" d="M7.56,31.29A2.36,2.36,0,0,1,7,31.23a2.31,2.31,0,0,1-1.72-2.77l1.92-8.25L.82,14.66a2.31,2.31,0,0,1,1.32-4l8.43-.72,3.3-7.79a2.31,2.31,0,0,1,4.25,0l3.3,7.79,8.43.72a2.31,2.31,0,0,1,1.32,4l-6.41,5.55,1.92,8.25A2.31,2.31,0,0,1,23.25,31L16,26.59,8.75,31A2.3,2.3,0,0,1,7.56,31.29ZM16,1.71a1.31,1.31,0,0,0-1.2.8l-3.54,8.34-9,.77a1.31,1.31,0,0,0-.75,2.29l6.86,5.95L6.28,28.69a1.31,1.31,0,0,0,1,1.57,1.3,1.3,0,0,0,1-.15L16,25.42l7.77,4.69a1.31,1.31,0,0,0,1.8-.45,1.29,1.29,0,0,0,.15-1l-2.06-8.84,6.86-5.95a1.31,1.31,0,0,0-.75-2.29l-9-.77L17.21,2.5A1.31,1.31,0,0,0,16,1.71Z"/></svg>