<svg xmlns="http://www.w3.org/2000/svg" viewBox="0 0 426.47 425.81"><title>Asset 1</title><g id="Layer_2" data-name="Layer 2"><g id="Layer_1-2" data-name="Layer 1"><path d="M426.47,206.87v12c-.29,2.28-.59,4.55-.87,6.83-1.15,9.4-1.66,18.92-3.53,28.17C398.82,368.92,290.85,442.62,175.25,422.51,55.67,401.72-22.79,281.66,6,163.47A213.1,213.1,0,0,1,261.59,5.54C346.14,25,411.07,95.48,423.64,181.68,424.86,190,425.54,198.47,426.47,206.87ZM212.93,42.56C119,42.74,42.51,119.46,42.69,213.28s76.89,170.24,170.84,170.09c93.8-.15,170.14-76.93,170-170.94C383.3,118.89,306.49,42.39,212.93,42.56Z"/><path d="M192.16,192h41.9v127.1h-41.9Z"/><path d="M234.05,106.82v42H192.26v-42Z"/></g></g></svg>