<svg width="24" height="24" viewBox="0 0 24 24" fill="none" xmlns="http://www.w3.org/2000/svg">
<path d="M21.4799 7.14115C21.4944 7.35115 21.4944 7.56115 21.4944 7.77309C21.4944 14.2308 16.5783 21.6786 7.58895 21.6786V21.6747C4.93346 21.6786 2.33314 20.9179 0.0976562 19.4837C0.483785 19.5302 0.87185 19.5534 1.26088 19.5544C3.46153 19.5563 5.59927 18.8179 7.33056 17.4582C5.23927 17.4186 3.4054 16.055 2.76475 14.0644C3.49733 14.2057 4.25217 14.1766 4.9712 13.9802C2.6912 13.5195 1.05088 11.5163 1.05088 9.18986C1.05088 9.16857 1.05088 9.14825 1.05088 9.12792C1.73024 9.50631 2.49088 9.71631 3.26895 9.73954C1.12153 8.30438 0.459592 5.4476 1.75637 3.21405C4.23766 6.26728 7.89862 8.12341 11.8286 8.31986C11.4348 6.62244 11.9728 4.84373 13.2425 3.65051C15.2109 1.80018 18.3067 1.89502 20.157 3.86244C21.2515 3.64663 22.3006 3.24502 23.2606 2.67599C22.8957 3.80728 22.1322 4.76825 21.1122 5.37889C22.0809 5.2647 23.0273 5.00534 23.9186 4.60954C23.2625 5.59276 22.436 6.44921 21.4799 7.14115Z" fill="#4A0D66"/>
</svg>
