<svg width="16" height="16" viewBox="0 0 16 16" fill="none" xmlns="http://www.w3.org/2000/svg">
<g clip-path="url(#clip0_702:6047)">
<path d="M16.001 1.05719V0.46875C16.001 0.209875 15.7911 0 15.5322 0H14.9437C13.496 0 12.3261 0.771469 11.6711 1.77931C11.4996 1.40328 11.2604 1.05709 10.9594 0.75625C10.6327 0.429344 10.3407 0.137313 10.3407 0.137313C10.1577 -0.04575 9.8609 -0.04575 9.67784 0.137313L9.05909 0.756063C8.39824 1.41663 8.0343 2.29528 8.0343 3.23022C8.0343 3.47097 8.05862 3.70794 8.10574 3.93847C8.05484 3.88047 8.00202 3.82378 7.94693 3.76872L7.32827 3.14981C7.14521 2.96672 6.84824 2.96691 6.66534 3.14981L6.04659 3.76856C5.38574 4.42912 5.0218 5.30781 5.0218 6.24272C5.0218 6.48347 5.04612 6.72047 5.09324 6.951C5.04234 6.893 4.98952 6.83631 4.93443 6.78125L4.31577 6.16231C4.22787 6.07441 4.10865 6.025 3.98434 6.025C3.86002 6.025 3.7408 6.07441 3.6529 6.16231L3.03412 6.78106C1.68168 8.13291 1.65302 10.3488 3.03405 11.7293L3.32143 12.0167L0.138273 15.1998C-0.0447891 15.3829 -0.0447891 15.6797 0.138273 15.8627C0.321305 16.0458 0.618117 16.0458 0.80118 15.8627L3.98424 12.6797L4.27152 12.967C4.93255 13.6278 5.81121 13.9917 6.74552 13.9917C7.13271 13.9917 8.25427 13.9322 9.21987 12.967L9.83871 12.3481C9.92662 12.2602 9.97602 12.141 9.97602 12.0167C9.97602 11.8923 9.92662 11.7731 9.83871 11.6852L9.2198 11.0663C9.1648 11.0113 9.10815 10.9586 9.05021 10.9078C9.28062 10.9549 9.51746 10.9792 9.75802 10.9792H9.75827C10.6926 10.9792 11.5712 10.6153 12.2324 9.95444L12.8512 9.33562C13.0342 9.15256 13.0341 8.85559 12.8512 8.67269L12.2323 8.05381C12.1773 7.99881 12.1206 7.94609 12.0627 7.89525C12.2931 7.94234 12.53 7.96666 12.7705 7.96666H12.7708C13.7051 7.96666 14.5838 7.60275 15.2449 6.94194L15.8637 6.32312C16.0467 6.14009 16.0467 5.84328 15.8637 5.66022L15.2448 5.04131C14.9437 4.74034 14.5974 4.50122 14.2213 4.32978C15.2283 3.67525 16.001 2.50716 16.001 1.05719ZM9.72193 1.41903L10.0092 1.13172C10.0965 1.21897 10.1948 1.31734 10.2965 1.41912C11.2968 2.41903 11.2987 4.03956 10.2963 5.04153L10.0092 5.32869L9.72187 5.04131C8.7303 4.05022 8.71218 2.42838 9.72193 1.41903ZM8.9004 5.53478C8.95127 5.59269 9.00402 5.64934 9.05902 5.70431L10.2965 6.942C10.3515 6.997 10.4081 7.04975 10.4661 7.10059C9.75356 6.95494 9.16731 7.0635 8.85434 7.14663C8.93768 6.83278 9.0459 6.24662 8.9004 5.53478ZM6.70943 4.43153L6.99671 4.14422L7.28396 4.43159C8.2843 5.4315 8.28618 7.05203 7.28377 8.054L6.99671 8.34116L6.70937 8.05378C5.71802 7.06288 5.69946 5.44109 6.70943 4.43153ZM5.88787 8.54722C5.93874 8.60516 5.99149 8.66178 6.04652 8.71678L7.28396 9.9545C7.33899 10.0095 7.39565 10.0622 7.45359 10.1131C6.74105 9.96744 6.1548 10.076 5.84177 10.1591C5.92515 9.84528 6.0334 9.25912 5.88787 8.54722ZM4.27127 11.0665L3.98421 11.3537L3.69684 11.0663C2.70559 10.0755 2.68684 8.45369 3.6969 7.44403L3.98421 7.15672L4.27146 7.44409C5.2718 8.44397 5.27368 10.0645 4.27127 11.0665ZM8.55699 12.304C8.07302 12.7877 7.42977 13.0542 6.74577 13.0542C6.45955 13.0542 5.63999 13.0093 4.93446 12.3042L4.64709 12.0167L4.93427 11.7294C5.93493 10.7291 7.55477 10.7275 8.55696 11.7293L8.84434 12.0167L8.55699 12.304ZM11.5695 9.29147C10.576 10.2845 8.95552 10.2998 7.94693 9.29166L7.65959 9.00416L7.94674 8.71688C8.94743 7.71659 10.5672 7.71503 11.5694 8.71681L11.8568 9.00419L11.5695 9.29147ZM14.5819 5.70431L14.8693 5.99166L14.582 6.27894C13.5885 7.27206 11.9679 7.28716 10.9594 6.27913C10.8577 6.17731 10.7593 6.07888 10.6721 5.99159L10.9592 5.70434C11.96 4.70406 13.5798 4.70259 14.5819 5.70431ZM12.1037 4.01666H11.9843V3.89697C11.9843 2.25944 13.3099 0.9375 14.9438 0.9375H15.0635V1.05719C15.0635 2.70412 13.7258 4.01666 12.1037 4.01666Z" fill="#35363C"/>
</g>
<defs>
<clipPath id="clip0_702:6047">
<rect width="16" height="16" fill="white"/>
</clipPath>
</defs>
</svg>
