<?xml version="1.0" encoding="UTF-8"?>
<svg width="283px" height="274px" viewBox="0 0 283 274" version="1.1" xmlns="http://www.w3.org/2000/svg" xmlns:xlink="http://www.w3.org/1999/xlink">
    <!-- Generator: Sketch 63.1 (92452) - https://sketch.com -->
    <title>more/dashboard/graph</title>
    <desc>Created with Sketch.</desc>
    <defs>
        <rect id="path-1" x="0" y="0" width="245" height="226"></rect>
    </defs>
    <g id="Desktop-(XL)" stroke="none" stroke-width="1" fill="none" fill-rule="evenodd">
        <g id="8.2-Cart---Confirmation" transform="translate(-1064.000000, -1149.000000)">
            <g id="section-02" transform="translate(270.000000, 554.000000)">
                <g id="icons" transform="translate(0.000000, 174.000000)">
                    <g id="05" transform="translate(390.000000, 381.000000)">
                        <g id="more/dashboard/graph" transform="translate(404.000000, 36.000000)">
                            <g>
                                <g id="Years" transform="translate(63.000000, 259.000000)" fill="#35363C" font-family="Roboto-Regular, Roboto" font-size="14" font-weight="normal" line-spacing="22">
                                    <text id="2017">
                                        <tspan x="179.401933" y="15">May</tspan>
                                    </text>
                                    <text id="2016">
                                        <tspan x="137.009844" y="15">Apr</tspan>
                                    </text>
                                    <text id="2015">
                                        <tspan x="90.5230272" y="15">Mar</tspan>
                                    </text>
                                    <text id="2014">
                                        <tspan x="46.1621874" y="15">Feb</tspan>
                                    </text>
                                    <text id="2013">
                                        <tspan x="1.23054674" y="15">Jan</tspan>
                                    </text>
                                </g>
                                <g id="Lines" transform="translate(38.000000, 11.000000)" stroke="#EAE7EB" stroke-width="1.5">
                                    <line x1="0" y1="0.5" x2="245" y2="0.5" id="6"></line>
                                    <line x1="0" y1="45.5" x2="245" y2="45.5" id="5"></line>
                                    <line x1="0" y1="90.5" x2="245" y2="90.5" id="4"></line>
                                    <line x1="0" y1="134.5" x2="245" y2="134.5" id="3"></line>
                                    <line x1="0" y1="180.5" x2="245" y2="180.5" id="2"></line>
                                    <line x1="0" y1="224.5" x2="245" y2="224.5" id="1"></line>
                                </g>
                                <g id="Market-Cap" fill="#35363C" font-family="Roboto-Regular, Roboto" font-size="14" font-weight="normal" line-spacing="22">
                                    <text id="$-0">
                                        <tspan x="11.0556641" y="238">0</tspan>
                                    </text>
                                    <text id="$-20B">
                                        <tspan x="0.114746094" y="182">20</tspan>
                                    </text>
                                    <text id="$-40B">
                                        <tspan x="0.114746094" y="126">40</tspan>
                                    </text>
                                    <text id="$-60B">
                                        <tspan x="0.114746094" y="70">60</tspan>
                                    </text>
                                    <text id="$-80B">
                                        <tspan x="0.114746094" y="14">80</tspan>
                                    </text>
                                </g>
                                <g id="Chart" transform="translate(38.000000, 12.000000)">
                                    <mask id="mask-2" fill="white">
                                        <use xlink:href="#path-1"></use>
                                    </mask>
                                    <g id="Mask"></g>
                                    <path d="M-442.616858,253.892314 L-452.340568,262.400561 L-454,260.504067 L-443.56371,251.372314 L-431.10653,251.372314 L-422.215951,239.941569 L-404.575951,242.461569 L-395.82653,231.212314 L-379.303711,231.212314 L-369.058962,222.248159 L-347.039002,228.724618 L-333.481536,231.189611 L-321.239733,228.741251 L-306.002285,222.392314 L-287.837358,222.392314 L-274.098875,228.637079 L-242.506771,222.318658 L-232.308922,228.692314 L-216.375036,228.692314 L-169.621201,222.374228 L-151.896801,226.172314 L-82.834549,226.172314 L-60.2973928,222.416783 L-41.2750511,218.612314 L-30.9368017,218.612314 L-13.4404231,222.361538 L2.31428107,218.725837 L15.8783523,205.161766 L28.4614664,190.062599 L37.4117697,179.833681 L50.0222634,172.267384 L62.8723268,158.132315 L80.6863917,158.132315 C85.1344611,155.132349 87.3697127,152.873316 87.3697127,151.832315 C87.3697127,149.954226 88.6392849,145.299128 91.2143718,137.573868 L103.034161,130.628455 L118.869713,117.432162 L127.400329,124.54101 L131.003381,130.546095 L148.413125,134.028044 L158.117009,114.620275 L171.122821,97.7127196 L196.135709,95.2114308 L200.87831,84.5405805 L210.126005,68.672315 L220.372383,68.672315 L232.638757,55.1813606 L243.320721,44.4993971 L231.615374,22.3892966 L251.877404,18.5901659 L245.432927,4.41231539 L263.472266,4.41231539 L278.256059,-2.97958126 L293.14066,-12.9026484 L330.549711,-61 L330.549711,18.7535925 L341.75669,24.3570816 L355.984264,13.6864007 L360.157981,3.94772753 L373.894049,10.8157615 L394.161229,18.4159541 L399.078022,22.1035486 L418.905995,24.5820452 L418.593427,27.0825854 L398.1014,24.521082 L392.938193,20.6486765 L372.947296,13.1520901 L361.421441,7.39690324 L358.035158,15.2982299 L342.022733,27.307549 L328.029711,20.3110381 L328.029711,-53.6553685 L294.878763,-11.0327206 L279.588634,-0.839301205 L264.067157,6.93231538 L249.346497,6.93231538 L255.50202,20.4744647 L235.44405,24.235334 L246.418703,44.9652333 L234.462036,56.9198828 L221.487098,71.192315 L211.573419,71.192315 L203.152979,85.6273539 L197.843715,97.5731989 L172.456603,100.11191 L160.262415,115.964355 L149.8063,136.876585 L129.416044,132.798534 L125.459096,126.20362 L118.869713,120.712467 L104.465264,132.716174 L93.4505198,138.835477 C91.0878862,145.957761 89.8897127,150.381697 89.8897127,151.832315 C89.8897127,154.126976 87.1907017,156.825987 81.768635,160.440698 L63.9870989,160.652315 L51.6371625,174.237245 L39.0476412,181.790957 L30.3776719,191.698947 L17.7776719,206.818947 L3.58514535,221.018791 L-13.4201503,224.94309 L-31.2037714,221.132314 L-41.0255435,221.132314 L-59.8431437,224.89517 L-82.5231436,228.67517 L-152.163771,228.692314 L-169.71937,224.9304 L-216.121549,231.200965 L-233.031649,231.212314 L-242.993799,224.98597 L-274.401696,231.267549 L-288.383213,224.912314 L-305.498285,224.912314 L-320.500837,231.163377 L-333.459034,233.755017 L-347.55568,231.19199 L-368.441608,225.05647 L-378.356858,233.732314 L-394.594039,233.732314 L-403.484618,245.163059 L-421.124618,242.643059 L-429.874039,253.892314 L-442.616858,253.892314 Z M263.769712,4.41231539 L263.206223,4.54533713 L263.472266,4.41231539 L263.769712,4.41231539 Z M2.66639024,218.644581 L2.05875867,218.98136 L2.31428107,218.725837 L2.66639024,218.644581 Z M-321.117391,228.716782 L-321.3549,228.789237 L-321.239733,228.741251 L-321.117391,228.716782 Z" id="Path-2" fill="#4A0D66" mask="url(#mask-2)"></path>
                                    <polygon id="Path-4" fill="#EAE7EB" mask="url(#mask-2)" points="-273.972795 271.267609 -275 268.448948 -244.526269 257.343407 -227.913565 262.920188 -175.274127 268.305823 -147.557321 247.246676 -106.838466 251.762328 -21.9616003 175.862185 28.6664332 175.862185 41.7382956 190.273312 53.5066383 198.650471 122.62895 149.542504 143.174951 169.848337 220.90738 90.9069626 285.620083 170.747259 328.699228 189.901247 355.713687 189.901247 434.818773 149.797155 471.309216 170.04516 516.431941 113.616801 571.796102 57.6339828 588.231692 -45 591.19395 -44.5256302 574.606103 59.059137 518.725526 115.55219 472.069551 173.897959 434.755307 153.192839 356.430705 192.901247 328.062351 192.901247 283.743059 173.195861 220.690137 95.4033447 143.203816 174.094783 122.312318 153.44749 53.5049413 202.331711 39.7342215 192.529183 27.3373339 178.862185 -20.8158826 178.862185 -105.837454 254.89173 -146.696725 250.360506 -174.401793 271.410734 -228.551418 265.870588 -244.485589 260.521587"></polygon>
                                </g>
                            </g>
                        </g>
                    </g>
                </g>
            </g>
        </g>
    </g>
</svg>