<?xml version="1.0" encoding="UTF-8"?>
<svg width="180px" height="96px" viewBox="0 0 180 96" version="1.1" xmlns="http://www.w3.org/2000/svg" xmlns:xlink="http://www.w3.org/1999/xlink">
    <!-- Generator: Sketch 63.1 (92452) - https://sketch.com -->
    <title>logo/mainlogo</title>
    <desc>Created with Sketch.</desc>
    <defs>
        <polygon id="path-1" points="0 0.237 3.5918 0.237 3.5918 4.899 0 4.899"></polygon>
        <polygon id="path-3" points="0 79.7358 164 79.7358 164 -0.0002 0 -0.0002"></polygon>
    </defs>
    <g id="logo/mainlogo" stroke="none" stroke-width="1" fill="none" fill-rule="evenodd">
        <g id="Group-52" transform="translate(8.000000, 8.000000)">
            <path d="M95.6267,21.1573 C94.3417,21.6613 92.0477,21.4313 91.2387,20.2783 C91.6997,20.7933 93.7527,21.5243 95.5487,20.5303 C97.0427,19.7023 98.0037,17.8133 98.0037,17.8133 C98.0037,17.8133 94.5597,15.8553 92.7627,14.8673 L92.3637,14.3003 C92.9687,14.6373 98.9497,18.0153 98.9497,18.0153 C98.3627,19.1263 97.1817,20.5473 95.6267,21.1573 M60.8487,41.2723 C60.8487,41.2723 59.0697,41.8483 58.2617,40.4173 C57.7027,39.4263 58.7967,38.4683 58.7967,38.4683 C58.8907,37.4673 59.9037,36.9183 61.5937,36.5003 C59.0537,37.4383 59.0117,38.4993 59.1447,39.2003 C59.5807,41.5083 62.9077,40.8553 64.0897,40.5303 C66.2227,39.9433 68.3547,38.3833 70.3907,38.5043 C66.2807,41.3753 62.1447,41.9763 60.8487,41.2723 M104.1897,2.3413 C103.3507,5.3833 101.2247,12.6833 98.1737,16.7953 L97.3577,16.3133 C100.6387,10.6673 101.8297,4.7173 101.9747,2.1253 C101.9837,1.9423 101.7227,1.9033 101.6747,2.0793 C100.9797,4.6613 99.1057,11.4473 96.2057,15.6693 L95.2857,15.1733 C98.3147,10.2613 99.7257,4.5153 99.9697,1.8013 C99.9847,1.6193 99.7257,1.5703 99.6727,1.7443 C98.9107,4.2353 96.9227,10.5163 94.0337,14.4473 L93.3977,14.0963 C96.5547,8.8553 97.7787,4.0093 98.0837,1.5853 C98.1057,1.4033 97.8457,1.3463 97.7877,1.5203 C96.9607,3.9993 95.3427,9.2433 92.3557,13.2183 C89.4387,17.0983 89.4637,18.9813 90.8927,20.9413 C90.8927,20.9413 90.7717,21.1473 90.6477,21.3143 C86.5127,27.0043 80.4807,30.9423 76.6727,32.7303 C72.8657,34.5183 70.3907,35.1323 65.6457,35.0413 C61.9397,34.9703 58.5637,35.6313 58.2307,37.9973 C58.2307,37.9973 56.5047,39.2683 57.3557,40.9283 C58.2467,42.6713 60.6237,42.0333 60.6237,42.0333 C62.2117,42.6693 63.9017,42.3533 64.2177,42.2623 C67.7767,41.2463 72.2347,39.1443 78.4117,34.6883 C85.5367,29.5493 88.3057,26.8443 91.7917,22.1603 C91.8857,22.0333 92.0117,21.8263 92.0117,21.8263 C95.3687,22.7693 97.6607,21.1863 99.7307,17.7353 C102.0757,13.8243 103.8947,7.1773 104.4877,2.4003 C104.5117,2.2133 104.2397,2.1593 104.1897,2.3413" id="Fill-1" fill="#85754E"></path>
            <path d="M104.7127,40.6719 C104.6777,41.2939 103.7787,41.6839 103.1447,41.5949 C95.0417,40.5429 87.7127,37.3079 81.7157,32.5679 C81.6407,32.5069 81.5757,32.4409 81.5127,32.3769 C87.5637,36.7749 94.7507,39.6179 102.4857,40.4109 C103.0537,40.4779 103.7587,40.2229 104.1307,39.7859 C104.4687,40.0039 104.7377,40.3109 104.7127,40.6719 M103.5597,38.8169 C91.1337,37.8839 79.1377,30.5009 73.0367,22.2209 C73.0397,22.2169 67.6787,15.2309 65.8797,8.3879 C65.5107,6.9909 65.1067,5.6329 64.8247,4.2679 C64.9337,4.6569 65.0427,5.0459 65.1627,5.4359 C66.8817,11.0279 69.7727,16.0479 72.9717,19.8759 C75.4837,16.1779 73.9797,12.6159 74.0427,12.5629 C73.7957,12.9249 73.5547,13.2939 73.3187,13.6699 C73.3197,13.6509 73.8007,11.8499 72.8697,9.9079 C72.7187,10.2159 72.5707,10.5279 72.4277,10.8439 C72.4027,10.8409 71.9037,8.3669 71.1737,7.3339 C71.1687,7.3279 70.6557,8.6289 70.6087,8.1779 C70.5547,7.7049 70.1627,6.1969 68.7557,4.4299 C68.6547,4.8199 68.5617,5.2139 68.4727,5.6129 C68.4667,5.5989 67.9977,3.6869 66.5187,1.8889 C66.5097,1.8869 66.3517,3.4989 66.2527,3.1739 C65.7147,1.5439 64.1887,-0.0271 64.1497,0.0009 C64.1067,-0.0501 62.7337,1.7469 62.6927,3.6639 C62.6787,4.0449 62.1047,2.3599 62.1127,2.3529 C61.0357,4.6709 61.4907,7.1139 61.4947,7.0959 C61.2387,6.6989 60.9877,6.2949 60.7417,5.8849 C60.1187,8.5029 60.7777,10.5379 61.0217,11.0529 C61.2697,11.5879 60.0357,10.4619 60.0387,10.4519 C59.9897,12.1109 61.4907,15.0929 61.5607,15.1669 C61.2117,14.9639 60.8627,14.7539 60.5147,14.5369 C61.4157,17.4499 63.4817,18.5899 63.4627,18.5789 C62.9897,18.4789 62.5157,18.3689 62.0417,18.2519 C61.9177,18.3089 64.1277,23.1429 71.0227,21.4479 C71.0227,21.4479 71.4267,22.0199 71.7197,22.4379 C80.0787,34.3689 89.7947,40.5439 103.1997,42.2779 C104.2727,42.4339 105.7707,41.7599 105.8007,40.7299 C105.8377,39.7069 104.5347,38.8899 103.5597,38.8169" id="Fill-3" fill="#490E67"></path>
            <polygon id="Fill-5" fill="#490E67" points="0.0022 66.9981 0.0022 53.6711 10.1602 53.6711 10.1602 54.8411 1.2272 54.8411 1.2272 59.5061 9.7992 59.5061 9.7992 60.6771 1.2272 60.6771 1.2272 65.8101 10.2682 65.8101 10.2682 66.9981"></polygon>
            <path d="M25.7742,55.3819 L23.0012,61.6669 L28.5482,61.6669 L25.7742,55.3819 Z M30.8892,66.9979 L29.0702,62.8379 L22.4782,62.8379 L20.6592,66.9979 L19.2732,66.9979 L25.1792,53.6709 L26.3692,53.6709 L32.2762,66.9979 L30.8892,66.9979 Z" id="Fill-7" fill="#490E67"></path>
            <polygon id="Fill-9" fill="#490E67" points="46.9002 54.8409 46.9002 66.9979 45.6752 66.9979 45.6752 54.8409 40.6872 54.8409 40.6872 53.6709 51.8882 53.6709 51.8882 54.8409"></polygon>
            <path d="M67.9715,54.5528 C67.0715,54.5528 66.2725,54.7148 65.5755,55.0388 C64.8805,55.3638 64.2975,55.7928 63.8285,56.3268 C63.3615,56.8618 63.0035,57.4768 62.7575,58.1728 C62.5115,58.8688 62.3885,59.5898 62.3885,60.3338 C62.3885,61.0788 62.5115,61.7958 62.7575,62.4868 C63.0035,63.1768 63.3615,63.7888 63.8285,64.3238 C64.2975,64.8578 64.8805,65.2868 65.5755,65.6118 C66.2725,65.9358 67.0715,66.0978 67.9715,66.0978 C68.8725,66.0978 69.6705,65.9358 70.3675,65.6118 C71.0625,65.2868 71.6455,64.8578 72.1135,64.3238 C72.5825,63.7888 72.9395,63.1768 73.1855,62.4868 C73.4315,61.7958 73.5545,61.0788 73.5545,60.3338 C73.5545,59.5898 73.4315,58.8688 73.1855,58.1728 C72.9395,57.4768 72.5825,56.8618 72.1135,56.3268 C71.6455,55.7928 71.0625,55.3638 70.3675,55.0388 C69.6705,54.7148 68.8725,54.5528 67.9715,54.5528 M67.9715,67.2858 C67.1065,67.2858 66.3355,67.1748 65.6575,66.9528 C64.9785,66.7318 64.3875,66.4338 63.8835,66.0618 C63.3785,65.6898 62.9525,65.2638 62.6045,64.7828 C62.2565,64.3028 61.9745,63.8048 61.7585,63.2878 C61.5425,62.7718 61.3865,62.2588 61.2895,61.7478 C61.1935,61.2378 61.1455,60.7668 61.1455,60.3338 C61.1455,59.9028 61.1935,59.4318 61.2895,58.9208 C61.3865,58.4098 61.5425,57.8978 61.7585,57.3808 C61.9745,56.8648 62.2565,56.3658 62.6045,55.8858 C62.9525,55.4058 63.3785,54.9798 63.8835,54.6078 C64.3875,54.2358 64.9785,53.9378 65.6575,53.7158 C66.3355,53.4938 67.1065,53.3828 67.9715,53.3828 C68.8355,53.3828 69.6075,53.4938 70.2855,53.7158 C70.9645,53.9378 71.5555,54.2358 72.0595,54.6078 C72.5645,54.9798 72.9905,55.4058 73.3385,55.8858 C73.6865,56.3658 73.9695,56.8648 74.1845,57.3808 C74.4015,57.8978 74.5565,58.4098 74.6535,58.9208 C74.7485,59.4318 74.7975,59.9028 74.7975,60.3338 C74.7975,60.7668 74.7485,61.2378 74.6535,61.7478 C74.5565,62.2588 74.4015,62.7718 74.1845,63.2878 C73.9695,63.8048 73.6865,64.3028 73.3385,64.7828 C72.9905,65.2638 72.5645,65.6898 72.0595,66.0618 C71.5555,66.4338 70.9645,66.7318 70.2855,66.9528 C69.6075,67.1748 68.8355,67.2858 67.9715,67.2858" id="Fill-11" fill="#490E67"></path>
            <polygon id="Fill-13" fill="#490E67" points="85.4051 66.9981 85.4051 53.6711 86.6301 53.6711 86.6301 65.8101 94.6621 65.8101 94.6621 66.9981"></polygon>
            <path d="M111.0144,54.5528 C110.1144,54.5528 109.3164,54.7148 108.6184,55.0388 C107.9234,55.3638 107.3404,55.7928 106.8724,56.3268 C106.4044,56.8618 106.0464,57.4768 105.8004,58.1728 C105.5544,58.8688 105.4314,59.5898 105.4314,60.3338 C105.4314,61.0788 105.5544,61.7958 105.8004,62.4868 C106.0464,63.1768 106.4044,63.7888 106.8724,64.3238 C107.3404,64.8578 107.9234,65.2868 108.6184,65.6118 C109.3164,65.9358 110.1144,66.0978 111.0144,66.0978 C111.9154,66.0978 112.7134,65.9358 113.4104,65.6118 C114.1064,65.2868 114.6894,64.8578 115.1574,64.3238 C115.6254,63.7888 115.9834,63.1768 116.2284,62.4868 C116.4744,61.7958 116.5984,61.0788 116.5984,60.3338 C116.5984,59.5898 116.4744,58.8688 116.2284,58.1728 C115.9834,57.4768 115.6254,56.8618 115.1574,56.3268 C114.6894,55.7928 114.1064,55.3638 113.4104,55.0388 C112.7134,54.7148 111.9154,54.5528 111.0144,54.5528 M111.0144,67.2858 C110.1504,67.2858 109.3784,67.1748 108.7014,66.9528 C108.0224,66.7318 107.4304,66.4338 106.9264,66.0618 C106.4224,65.6898 105.9954,65.2638 105.6484,64.7828 C105.2994,64.3028 105.0174,63.8048 104.8014,63.2878 C104.5854,62.7718 104.4294,62.2588 104.3324,61.7478 C104.2374,61.2378 104.1894,60.7668 104.1894,60.3338 C104.1894,59.9028 104.2374,59.4318 104.3324,58.9208 C104.4294,58.4098 104.5854,57.8978 104.8014,57.3808 C105.0174,56.8648 105.2994,56.3658 105.6484,55.8858 C105.9954,55.4058 106.4224,54.9798 106.9264,54.6078 C107.4304,54.2358 108.0224,53.9378 108.7014,53.7158 C109.3784,53.4938 110.1504,53.3828 111.0144,53.3828 C111.8794,53.3828 112.6504,53.4938 113.3284,53.7158 C114.0074,53.9378 114.5994,54.2358 115.1034,54.6078 C115.6084,54.9798 116.0344,55.4058 116.3814,55.8858 C116.7294,56.3658 117.0124,56.8648 117.2284,57.3808 C117.4444,57.8978 117.6004,58.4098 117.6974,58.9208 C117.7924,59.4318 117.8404,59.9028 117.8404,60.3338 C117.8404,60.7668 117.7924,61.2378 117.6974,61.7478 C117.6004,62.2588 117.4444,62.7718 117.2284,63.2878 C117.0124,63.8048 116.7294,64.3028 116.3814,64.7828 C116.0344,65.2638 115.6084,65.6898 115.1034,66.0618 C114.5994,66.4338 114.0074,66.7318 113.3284,66.9528 C112.6504,67.1748 111.8794,67.2858 111.0144,67.2858" id="Fill-15" fill="#490E67"></path>
            <path d="M140.1551,64.4766 C139.6021,65.4136 138.8641,66.1156 137.9391,66.5836 C137.0141,67.0516 136.0061,67.2866 134.9141,67.2866 C133.9411,67.2866 133.0381,67.1296 132.2041,66.8186 C131.3691,66.5056 130.6451,66.0526 130.0331,65.4576 C129.4211,64.8646 128.9401,64.1376 128.5921,63.2796 C128.2441,62.4206 128.0701,61.4396 128.0701,60.3336 C128.0701,59.5306 128.2051,58.7166 128.4751,57.8946 C128.7461,57.0726 129.1601,56.3276 129.7181,55.6616 C130.2761,54.9946 130.9881,54.4486 131.8521,54.0216 C132.7171,53.5956 133.7371,53.3826 134.9141,53.3826 C135.6941,53.3826 136.4241,53.4816 137.1021,53.6796 C137.7811,53.8776 138.3841,54.1776 138.9121,54.5806 C139.4401,54.9826 139.8901,55.4806 140.2631,56.0756 C140.6341,56.6696 140.9051,57.3626 141.0731,58.1556 L139.8311,58.1556 C139.6991,57.5546 139.4821,57.0296 139.1821,56.5796 C138.8831,56.1286 138.5161,55.7536 138.0841,55.4536 C137.6511,55.1536 137.1661,54.9286 136.6251,54.7786 C136.0851,54.6276 135.5141,54.5526 134.9141,54.5526 C134.0501,54.5526 133.2721,54.7056 132.5821,55.0116 C131.8911,55.3186 131.3031,55.7356 130.8171,56.2636 C130.3301,56.7926 129.9581,57.4086 129.7001,58.1106 C129.4421,58.8126 129.3131,59.5536 129.3131,60.3336 C129.3131,61.1156 129.4321,61.8536 129.6731,62.5496 C129.9131,63.2466 130.2671,63.8586 130.7351,64.3866 C131.2041,64.9146 131.7861,65.3316 132.4821,65.6386 C133.1781,65.9446 133.9891,66.0976 134.9141,66.0976 C135.6461,66.0976 136.3121,65.9896 136.9131,65.7736 C137.5131,65.5576 138.0361,65.2426 138.4801,64.8286 C138.9241,64.4136 139.2791,63.9096 139.5431,63.3156 C139.8061,62.7206 139.9681,62.0446 140.0291,61.2886 L135.0571,61.2886 L135.0571,60.1186 L141.2891,60.1186 L141.2891,66.9976 L140.1551,66.9976 L140.1551,64.4766 Z" id="Fill-17" fill="#490E67"></path>
            <polygon id="Fill-19" fill="#490E67" points="158.0027 61.4327 158.0027 66.9977 156.7777 66.9977 156.7777 61.4327 150.7807 53.6707 152.4557 53.6707 157.3907 60.2267 162.4337 53.6707 163.9997 53.6707"></polygon>
            <g id="Group-23" transform="translate(0.000000, 74.735800)">
                <mask id="mask-2" fill="white">
                    <use xlink:href="#path-1"></use>
                </mask>
                <g id="Clip-22"></g>
                <polygon id="Fill-21" fill="#490E67" mask="url(#mask-2)" points="-0.0002 4.899 -0.0002 0.237 3.5538 0.237 3.5538 0.646 0.4288 0.646 0.4288 2.278 3.4278 2.278 3.4278 2.688 0.4288 2.688 0.4288 4.483 3.5918 4.483 3.5918 4.899"></polygon>
            </g>
            <path d="M10.2766,75.5714 L9.3066,77.7694 L11.2476,77.7694 L10.2766,75.5714 Z M12.0666,79.6344 L11.4296,78.1794 L9.1236,78.1794 L8.4866,79.6344 L8.0026,79.6344 L10.0686,74.9724 L10.4846,74.9724 L12.5516,79.6344 L12.0666,79.6344 Z" id="Fill-24" fill="#490E67"></path>
            <polygon id="Fill-26" fill="#490E67" points="18.9275 75.3819 18.9275 79.6349 18.4985 79.6349 18.4985 75.3819 16.7545 75.3819 16.7545 74.9719 20.6725 74.9719 20.6725 75.3819"></polygon>
            <polygon id="Fill-28" fill="#490E67" points="34.7742 79.6348 34.7742 77.3858 31.6052 77.3858 31.6052 79.6348 31.1762 79.6348 31.1762 74.9728 31.6052 74.9728 31.6052 76.9758 34.7742 76.9758 34.7742 74.9728 35.2032 74.9728 35.2032 79.6348"></polygon>
            <polygon id="Fill-30" fill="#490E67" points="40.3694 79.6348 40.3694 74.9728 43.9224 74.9728 43.9224 75.3818 40.7984 75.3818 40.7984 77.0138 43.7964 77.0138 43.7964 77.4238 40.7984 77.4238 40.7984 79.2188 43.9614 79.2188 43.9614 79.6348"></polygon>
            <path d="M50.6458,75.5714 L49.6758,77.7694 L51.6168,77.7694 L50.6458,75.5714 Z M52.4358,79.6344 L51.7988,78.1794 L49.4928,78.1794 L48.8568,79.6344 L48.3718,79.6344 L50.4378,74.9724 L50.8538,74.9724 L52.9208,79.6344 L52.4358,79.6344 Z" id="Fill-32" fill="#490E67"></path>
            <polygon id="Fill-34" fill="#490E67" points="57.596 79.6348 57.596 74.9728 58.025 74.9728 58.025 79.2188 60.835 79.2188 60.835 79.6348"></polygon>
            <polygon id="Fill-36" fill="#490E67" points="67.324 75.3819 67.324 79.6349 66.895 79.6349 66.895 75.3819 65.15 75.3819 65.15 74.9719 69.069 74.9719 69.069 75.3819"></polygon>
            <polygon id="Fill-38" fill="#490E67" points="77.3616 79.6348 77.3616 77.3858 74.1926 77.3858 74.1926 79.6348 73.7636 79.6348 73.7636 74.9728 74.1926 74.9728 74.1926 76.9758 77.3616 76.9758 77.3616 74.9728 77.7906 74.9728 77.7906 79.6348"></polygon>
            <polygon id="Fill-40" fill="#490E67" points="84.8972 77.6885 84.8972 79.6345 84.4682 79.6345 84.4682 77.6885 82.3702 74.9725 82.9562 74.9725 84.6832 77.2655 86.4472 74.9725 86.9952 74.9725"></polygon>
            <mask id="mask-4" fill="white">
                <use xlink:href="#path-3"></use>
            </mask>
            <g id="Clip-43"></g>
            <polygon id="Fill-42" fill="#490E67" mask="url(#mask-4)" points="90.977 79.6348 91.304 79.6348 91.304 78.8408 90.977 78.8408"></polygon>
            <polygon id="Fill-44" fill="#490E67" mask="url(#mask-4)" points="96.6297 79.6348 96.6297 74.9728 97.0587 74.9728 97.0587 79.2188 99.8677 79.2188 99.8677 79.6348"></polygon>
            <polygon id="Fill-45" fill="#490E67" mask="url(#mask-4)" points="104.65 79.6348 105.066 79.6348 105.066 74.9718 104.65 74.9718"></polygon>
            <polygon id="Fill-46" fill="#490E67" mask="url(#mask-4)" points="112.1795 79.6348 111.7635 79.6348 109.7735 74.9728 110.2515 74.9728 111.9715 78.9918 113.6925 74.9728 114.1705 74.9728"></polygon>
            <polygon id="Fill-47" fill="#490E67" mask="url(#mask-4)" points="118.865 79.6348 118.865 74.9728 122.419 74.9728 122.419 75.3818 119.294 75.3818 119.294 77.0138 122.293 77.0138 122.293 77.4238 119.294 77.4238 119.294 79.2188 122.457 79.2188 122.457 79.6348"></polygon>
            <polygon id="Fill-48" fill="#490E67" mask="url(#mask-4)" points="133.1678 79.6348 133.1678 74.9728 136.7218 74.9728 136.7218 75.3818 133.5968 75.3818 133.5968 77.0138 136.5958 77.0138 136.5958 77.4238 133.5968 77.4238 133.5968 79.2188 136.7598 79.2188 136.7598 79.6348"></polygon>
            <path d="M143.4441,75.5714 L142.4741,77.7694 L144.4151,77.7694 L143.4441,75.5714 Z M145.2341,79.6344 L144.5971,78.1794 L142.2921,78.1794 L141.6551,79.6344 L141.1711,79.6344 L143.2361,74.9724 L143.6521,74.9724 L145.7191,79.6344 L145.2341,79.6344 Z" id="Fill-49" fill="#490E67" mask="url(#mask-4)"></path>
            <path d="M152.2283,79.7354 C151.8673,79.7354 151.5573,79.6964 151.2983,79.6164 C151.0413,79.5364 150.8293,79.4214 150.6663,79.2694 C150.5013,79.1184 150.3813,78.9344 150.3063,78.7174 C150.2303,78.5024 150.1933,78.2574 150.1933,77.9844 L150.6213,77.9844 C150.6213,78.1984 150.6503,78.3884 150.7093,78.5544 C150.7683,78.7204 150.8603,78.8604 150.9873,78.9734 C151.1123,79.0874 151.2753,79.1734 151.4753,79.2314 C151.6743,79.2914 151.9163,79.3204 152.2033,79.3204 C152.4633,79.3204 152.6813,79.2944 152.8583,79.2414 C153.0353,79.1884 153.1763,79.1194 153.2833,79.0334 C153.3903,78.9474 153.4663,78.8494 153.5103,78.7404 C153.5543,78.6314 153.5763,78.5174 153.5763,78.4004 C153.5763,78.2874 153.5633,78.1884 153.5353,78.1034 C153.5073,78.0204 153.4553,77.9454 153.3743,77.8804 C153.2943,77.8154 153.1853,77.7564 153.0463,77.7044 C152.9093,77.6514 152.7253,77.5994 152.4993,77.5484 L151.6923,77.3734 C151.4533,77.3234 151.2473,77.2624 151.0753,77.1934 C150.9023,77.1244 150.7603,77.0404 150.6493,76.9414 C150.5383,76.8424 150.4573,76.7254 150.4033,76.5914 C150.3513,76.4574 150.3253,76.2994 150.3253,76.1194 C150.3253,75.9344 150.3643,75.7644 150.4413,75.6124 C150.5193,75.4584 150.6303,75.3274 150.7753,75.2174 C150.9203,75.1094 151.0993,75.0244 151.3113,74.9634 C151.5233,74.9024 151.7663,74.8724 152.0393,74.8724 C152.3163,74.8724 152.5683,74.8994 152.7943,74.9564 C153.0223,75.0134 153.2163,75.1024 153.3813,75.2244 C153.5443,75.3464 153.6733,75.5044 153.7683,75.6974 C153.8633,75.8894 153.9143,76.1254 153.9223,76.4024 L153.4943,76.4024 C153.4863,76.2634 153.4603,76.1284 153.4183,75.9964 C153.3763,75.8644 153.3043,75.7444 153.2023,75.6364 C153.0983,75.5304 152.9593,75.4444 152.7863,75.3794 C152.6113,75.3134 152.3873,75.2814 152.1153,75.2814 C151.8543,75.2814 151.6383,75.3044 151.4683,75.3504 C151.2983,75.3964 151.1633,75.4574 151.0623,75.5334 C150.9613,75.6084 150.8913,75.6984 150.8513,75.8004 C150.8113,75.9034 150.7913,76.0114 150.7913,76.1254 C150.7913,76.2304 150.8043,76.3234 150.8293,76.4054 C150.8543,76.4874 150.9023,76.5614 150.9703,76.6264 C151.0413,76.6914 151.1373,76.7494 151.2633,76.7994 C151.3893,76.8494 151.5533,76.8964 151.7553,76.9384 L152.6443,77.1214 C152.8623,77.1674 153.0573,77.2214 153.2293,77.2844 C153.4023,77.3474 153.5473,77.4274 153.6673,77.5244 C153.7883,77.6214 153.8793,77.7394 153.9453,77.8804 C154.0093,78.0204 154.0423,78.1884 154.0423,78.3814 C154.0423,78.5454 154.0133,78.7084 153.9543,78.8694 C153.8953,79.0314 153.7953,79.1764 153.6553,79.3044 C153.5143,79.4324 153.3283,79.5364 153.0943,79.6164 C152.8613,79.6964 152.5723,79.7354 152.2283,79.7354" id="Fill-50" fill="#490E67" mask="url(#mask-4)"></path>
            <polygon id="Fill-51" fill="#490E67" mask="url(#mask-4)" points="160.948 77.6885 160.948 79.6345 160.519 79.6345 160.519 77.6885 158.422 74.9725 159.008 74.9725 160.734 77.2655 162.498 74.9725 163.047 74.9725"></polygon>
        </g>
    </g>
</svg>